<?xml version="1.0" encoding="UTF-8" standalone="no"?>
<svg
   xmlns:dc="http://purl.org/dc/elements/1.1/"
   xmlns:cc="http://creativecommons.org/ns#"
   xmlns:rdf="http://www.w3.org/1999/02/22-rdf-syntax-ns#"
   xmlns:svg="http://www.w3.org/2000/svg"
   xmlns="http://www.w3.org/2000/svg"
   version="1.1"
   id="svg4208"
   viewBox="0 0 1916.6062 1697.1073"
   height="478.9614mm"
   width="540.90887mm">
  <defs
     id="defs4210" />
  <metadata
     id="metadata4213">
    <rdf:RDF>
      <cc:Work
         rdf:about="">
        <dc:format>image/svg+xml</dc:format>
        <dc:type
           rdf:resource="http://purl.org/dc/dcmitype/StillImage" />
        <dc:title></dc:title>
      </cc:Work>
    </rdf:RDF>
  </metadata>
  <g
     transform="translate(1051.6706,316.52657)"
     id="layer1">
    <g
       id="g4778">
      <path
         style="fill:#fcf9f9;fill-opacity:1;fill-rule:evenodd;stroke:none;stroke-width:1px;stroke-linecap:butt;stroke-linejoin:miter;stroke-opacity:1"
         d="m -11.428571,-264.78065 -191.428569,0 -45.71429,42.85714 -80,45.71429 -20,85.714282 -80,5.714286 -14.28571,102.857142 -54.28572,77.142858 -11.42857,25.714282 -68.57143,11.42857 -25.71428,111.42858 -88.57143,57.14285 8.57143,48.57143 -48.57143,45.71429 -14.28572,77.14285 -68.57142,25.71429 -37.14286,85.71429 -74.28572,54.28571 25.71429,68.57143 -68.57143,20 5.71429,80 -5.71429,37.14286 -71.42857,28.57142 71.42857,88.57143 162.85714,99.99997 51.42858,60 71.42857,5.7143 45.71428,-14.2857 122.85715,57.1429 94.28571,62.8571 94.28571,-37.1429 40,82.8572 185.71429,40 45.714286,37.1428 100,-40 80.000004,5.7143 220,-45.7143 42.85714,11.4286 60,-54.2857 80,-8.5714 45.71428,-48.5715 94.28572,22.8572 17.14286,-88.5714 80,-31.4286 L 760,1029.5051 805.71429,986.64792 842.85714,832.3622 814.28571,783.79078 831.42857,669.50506 602.85714,340.93363 540,215.21935 l -88.57143,-14.28572 0,-114.285711 L 380,38.07649 l -28.57143,-62.857142 -54.28571,-25.714286 -8.57143,-65.714282 -80,-2.85715 -31.42857,-74.28571 -57.14286,-60 -80,2.85714 z"
         id="path4772" />
      <path
         style="fill:#f4f2f2;fill-opacity:1;fill-rule:evenodd;stroke:none;stroke-width:1px;stroke-linecap:butt;stroke-linejoin:miter;stroke-opacity:1"
         d="m 28.571429,-270.49494 -94.285715,48.57143 8.571429,65.71429 51.4285713,45.71428 11.4285714,62.857145 57.1428573,74.285714 85.714287,94.285711 20,102.85715 40,40 77.14286,140 74.28571,60 77.14286,137.14285 54.28571,117.14286 74.28572,100 5.71428,60 37.14286,45.71429 8.57143,94.28572 -2.85715,88.5714 -11.42857,65.7143 57.14286,20 42.85714,-77.1429 60,-42.8571 -5.71428,-34.2857 60,-68.57144 L 840,818.07649 800,792.3622 l 31.42857,-100 -80,-140 L 662.85714,446.64792 611.42857,335.21935 540,220.93363 l -65.71429,-17.14285 -25.71428,-45.71429 -5.71429,-60 -71.42857,-80 -68.57143,-68.571428 -25.71428,-71.428572 -65.71429,2.85714 -25.71428,-68.57143 -57.14286,-62.85714 -71.428573,-2.85714 z"
         id="path4774" />
      <path
         style="fill:#344437;fill-opacity:1;fill-rule:evenodd;stroke:none;stroke-width:1px;stroke-linecap:butt;stroke-linejoin:miter;stroke-opacity:1"
         d="m -514.28571,340.93363 -71.42858,42.85715 -28.57142,194.28571 -57.14286,62.85714 2.85714,194.28572 -28.57143,279.99995 65.71429,2.8572 137.14286,62.8571 68.57142,54.2857 88.57143,-28.5714 54.28572,82.8572 142.85714,11.4285 37.14286,31.4286 57.142854,17.1429 94.285715,-42.8572 0,-328.57141 5.714285,-402.85714 -5.714285,-85.71429 -154.285719,-37.14286 -217.14285,-51.42857 -120,-28.57143 z"
         id="path4776" />
      <path
         style="fill:#000000"
         d="m -65.7858,1379.4253 c -47.1276,8.9119 -50.87944,-70.4356 -94.9588,-47.0066 -52.0912,-27.785 -113.20905,-3.0711 -160.39336,-41.7781 -18.81319,-58.6522 -36.16127,-64.4416 -84.94336,-32.1271 -70.4273,33.2818 -82.52702,-82.6256 -139.70448,-60.2925 -54.78203,10.4067 -63.83244,-61.4313 -111.87788,-63.1753 5.86483,40.414 -59.65152,72.9324 -67.3187,20.9123 -39.97708,-2.9785 -95.53461,-7.676 -111.73223,-53.1148 -12.43178,-34.194 -25.7909,-73.2166 -70.68171,-59.8551 -42.36431,-18.4466 -73.84886,-51.31502 -95.62298,-91.33124 -2.7093,-22.29987 -37.4698,-33.04107 -41.6264,-59.60255 -30.4867,-56.33541 47.7624,-70.54676 53.7831,-94.777 -6.78728,-28.92895 -12.0353,-68.03546 20.34834,-85.8037 90.9703,17.50808 -10.1356,-45.94014 31.22035,-81.6088 39.39441,-32.45212 73.52544,-58.54637 86.50664,-109.144 14.60414,-38.64663 54.66999,-54.11368 91.35078,-65.66393 -1.22579,-41.08202 12.00142,-81.40162 43.81741,-106.71204 15.31033,-30.83785 3.81927,-79.14921 49.19479,-89.33516 51.01696,-1.44796 28.13572,-72.36909 54.92601,-102.87735 15.1644,-35.88163 54.9634,-55.65881 91.21253,-55.8015 6.65325,-33.305585 21.50578,-62.935152 50,-81.96862 9.98557,-40.580195 -4.52753,-98.049943 41.88202,-122 60.08652,6.155452 62.36397,-31.43191 84.11798,-75.39297 23.91288,-23.26949 47.52217,-53.20681 85,-52.29085 14.20249,-31.32506 42.31658,-47.38475 76.24894,-47.56502 39.48274,8.69339 76.38782,-27.14215 101.58396,-5.10812 29.372857,5.02176 107.230167,-66.46587 148.2646,-11.89304 7.35697,57.17255 114.2875,-28.94963 119.8712,62.59801 12.01273,45.04061 54.30125,61.70277 53.8973,100.31384 37.3226,-30.8782 96.31191,-14.24278 88.7149,41.98011 -20.47692,57.242955 41.24838,42.504928 69.12562,64.564177 9.24757,34.8066379 1.65978,78.668843 50.39908,79.107403 29.3462,24.060947 29.47826,66.98722 24.9891,101.77173 -3.90841,64.32405 63.4323,9.36612 89.4056,45.91473 32.21742,44.93355 3.40395,97.42923 72.0937,100.52783 25.77819,27.61174 41.38184,69.75569 35.6915,107.44037 -24.45054,32.83124 81.01657,36.68522 84.1425,82.0318 -1.81585,43.98487 54.42819,41.69073 52.5723,89.5903 -11.40319,59.33891 62.50526,57.37085 48.0348,118.4096 -1.99381,30.29202 -31.8438,71.70431 5.1022,91.1184 8.12841,34.67342 10.22068,74.43568 -7.1365,110.5006 -34.0588,35.65409 10.03936,95.56974 -45.7534,122.56489 -54.62955,12.4404 17.79413,79.6191 -46.6084,97.3161 -75.06313,-7.15 -27.23589,104.0949 -115.1972,98.5 -43.78806,4.9341 -70.61516,-20.6104 -103.9858,20 -54.79749,4.2346 -100.05121,16.5174 -137.6293,57.0574 -35.6215,30.2684 -81.66385,-0.9131 -120.3129,21.1161 -68.22104,-5.33 -129.00034,25.0308 -194.9129,29.2893 -37.932938,-43.9333 -50.779798,64.7703 -107.7036,21.0952 -15.921282,1.532 -27.387912,18.1194 -45.39735,12.5052 z m 15,-52.3791 c 50.4761611,-16.0385 88.53112,-32.5327 67.273088,-96.4465 -7.6928702,-76.8099 4.517176,-155.0219 3.238437,-232.18561 C 2.1715706,939.85252 15.332456,879.28412 12.076775,818.41681 -18.169496,761.95119 11.307012,672.31336 16.2602,601.86221 c -5.664792,-53.06716 41.322311,-115.31486 -42.2657,-106.5 -69.905527,-25.55668 -143.66189,-37.7687 -216.2803,-54.02077 -85.68766,-7.64417 -167.76925,-32.90112 -244.44104,-73.12828 -44.92563,-19.98781 -81.98528,18.12461 -78.49319,62.82496 -24.02809,52.24069 18.38001,162.773 -45.86322,179.70209 -54.95125,6.89462 15.91776,63.35417 -8.01655,92.9399 -10.28258,89.64038 -27.44347,177.53645 -34.67202,266.3898 -2.41974,56.13799 -33.43076,137.13899 48.9709,129.27279 45.41663,24.6403 63.27173,44.1144 116.59818,37.0195 28.65515,15.9608 35.34378,49.975 58.90046,69 43.75145,28.3415 73.66274,-72.6477 126.38592,-56.2361 23.4066,36.1171 4.03531,97.1887 48.20193,125.121 41.91955,-39.6746 71.69273,-12.6952 103.17886,11.5094 42.49951,-25.1395 84.628648,-19.7374 85.6967,36.7735 -0.643389,-0.9863 11.301581,15.2903 15.05307,4.5162 z M 87.8917,1307.523 c 33.42422,-36.66 83.75257,-14.1134 124.3504,-28.206 33.46367,-28.8328 67.6495,8.649 94.0859,-18.9548 34.25502,-52.9759 77.80157,47.6065 96.5459,-23.5645 17.97235,-49.086 70.13572,-17.5079 107.1784,-29.136 56.62986,-12.2123 29.56104,-96.4313 81.8052,-103.754 7.36508,-33.0415 -53.47571,-60.1308 -11.1433,-87.4924 29.9637,-34.29026 31.19577,-102.55549 -24.1713,-111.93949 -58.34894,-11.97752 2.90359,-79.62789 -22.6853,-114.9041 -21.93248,-41.90352 -70.75545,-57.20862 -103.2349,-85.9861 18.49869,-53.75737 -13.10612,-99.54509 -52.4123,-122.6273 8.14123,-45.05403 7.96244,-84.2811 -47.1038,-80.3461 11.61052,-41.58637 -18.93297,-52.39226 -42.8753,-77.1396 C 237.99003,418.5453 242.06718,382.98638 230.66158,351.33736 183.02934,330.5033 207.80189,276.1845 175.9825,243.26702 113.7427,260.55056 102.43909,219.86272 130.2413,176.31906 101.73149,135.32375 107.94734,42.885886 39.982075,52.316877 -12.972628,34.478029 67.299936,-30.194755 -12.3144,-23.16859 c -36.614697,-24.016309 23.255299,-103.42444 -54.621,-92.16812 -93.54545,17.847136 24.372001,-81.76344 -37.29888,-102.30108 -39.73652,-19.69742 -96.7242,-47.01295 -118.00962,10.7406 -25.41962,16.78162 -66.43984,13.64891 -81.62067,47.25938 -7.25764,37.68419 -14.39213,94.047142 -68.74308,87.504441 -75.63808,-12.894834 -14.87536,87.115931 -52.94994,121.495579 -64.8736,-3.081694 -24.75235,88.11851 -82.05813,92.4941 -52.02452,-18.78463 -74.01997,34.88451 -74.66358,78.0059 14.46126,57.94263 -43.0083,64.71841 -74.21105,82.29341 43.64029,51.46694 -12.40318,60.176 -45.39784,85.44467 -26.27041,34.91339 20.73876,91.075 -27.16711,109.51775 -71.15379,-12.03963 -98.26298,42.21995 -95.32551,102.24417 -38.80615,14.17144 -101.21298,45.63829 -47.78386,85.4932 18.30349,59.49924 -86.09113,9.66296 -73.04773,74.6979 21.21141,65.26836 3.93771,103.52888 -63.6724,110.2654 3.9857,29.08431 34.25787,44.43508 57.17685,64.5435 32.31831,52.80881 82.51476,64.7157 131.7938,70.00889 40.92351,23.3454 26.04899,97.8358 79.38196,103.5903 46.75024,-11.846 21.32393,-109.71659 32.09365,-154.28369 6.36938,-67.13813 19.92104,-133.41103 21.0897,-200.55832 -16.06019,-39.86826 -9.37431,-87.6743 1.37466,-130.57958 10.48026,-35.95807 26.54462,-76.2345 52.18838,-102.2984 16.40039,-41.71218 4.87187,-100.72377 25.93604,-146.49301 22.81686,-42.92514 79.7293,-38.4102 119.98788,-59.41437 43.03293,13.1321 73.57485,49.11135 118.57613,59.89822 53.46313,25.30202 118.71775,15.70431 170,41.12996 47.26808,2.01089 102.758567,23.23586 153.779867,28.81756 38.5832041,13.81996 94.878148,6.70474 117.220133,44.52014 20.334747,47.0461 21.499874,100.27354 14.4259,149.34828 -13.811885,48.31339 8.747253,102.00124 -16.1298,149.036 -10.963498,43.82022 -3.487968,87.71622 -10.228025,132.02719 4.179581,41.99379 21.155208,82.54192 3.536325,124.71312 6.359368,58.7883 -11.730044,116.4682 3.8297,175.0377 12.435678,21.4854 -2.333857,88.2255 20.74335,88.6608 z m 563.8225,-138.0813 c 18.54317,-37.0714 -0.35295,-67.7395 -27.7829,-23.0795 -27.09061,7.2008 21.62787,26.7581 27.7829,23.0795 z m 9.6426,-75.0795 c 9.25943,-41.6001 97.68338,8.2643 62.3574,-48.3991 -19.59897,-48.92475 96.23603,-43.3669 47.443,-88.85089 -29.28414,-20.71174 5.05618,-47.53459 28.7856,-56.665 13.07329,-24.71994 33.15715,-95.56345 -17.7284,-78.7225 -24.58723,-26.54511 27.4197,-72.89707 21.4414,-109.64 19.41944,-63.72868 -57.46198,-8.54086 -57.8959,-45.3773 27.58699,-44.55956 2.49474,-100.61516 -41.51819,-105.4804 -6.28945,-27.09195 -44.04316,-12.45525 -34.21531,-66.01225 3.21551,-39.16502 -80.63088,-54.79465 -45.69686,-88.81684 -41.53474,17.32362 6.52223,-23.3456 -32.13444,-29.03571 2.50345,-26.62199 2.04069,-44.84007 -36.8979,-53.53982 -32.9613,-22.11638 -14.3881,-63.15193 -41.021,-92.85109 -58.80676,16.64148 -99.93984,-12.1958 -91.4894,-77.71693 C 452.54777,78.492017 360.84748,97.538836 350.44263,56.261952 372.82112,-19.480405 264.61355,4.6311932 274.82,-71.63779 c 1.50201,-62.70973 -114.52251,21.910206 -81.1058,-72.74808 -48.57781,7.76582 -60.15371,-53.19105 -76.32919,-86.09341 -31.222844,-15.84545 -77.065429,29.49398 -95.04061,-6.0541 -46.081564,7.644 -51.009109,49.89084 -68.4426,85.95844 45.45466482,-5.60984 113.632108,48.01472 70.3881,90.93715 -2.036456,30.503688 108.6368,-14.509829 55.0455,47.25 -41.110436,49.540544 58.46558,17.3434682 61.3788,63.25 13.06208,29.110299 21.31411,50.42858 33.9999,77.8807 26.20177,38.80387 -15.48219,86.11645 49.6728,90.07975 37.89064,42.03143 36.5606,98.20994 77.9217,139.2519 -11.52157,53.60486 95.10619,32.44854 79.5241,87.28765 -7.007,37.46564 49.38234,27.78132 57.7709,59.3644 -18.00608,53.69474 27.27764,73.6981 48.17,113.1713 12.56512,37.43311 -3.60236,79.91992 43.3264,96.0439 41.2057,26.32544 86.13375,74.5854 65.2765,127.7478 -22.02967,43.13006 46.34131,38.95232 54.5834,75.6726 23.82134,40.26429 -0.75334,82.81889 -21.16076,118.41979 18.35139,8.8546 9.83678,75.1152 31.55766,58.5802 z M 797.7142,556.36221 c -2.55494,-3.58745 -2.55494,3.58745 0,0 z"
         id="path4767" />
    </g>
  </g>
</svg>
